<svg width="61" height="61" viewBox="0 0 61 61" fill="none" xmlns="http://www.w3.org/2000/svg">
<g clip-path="url(#clip0_9_112)">
<path d="M32.6591 13.0909C32.0892 12.521 31.3107 12.2 30.5 12.2C29.6894 12.2 28.9108 12.521 28.3409 13.0909C27.7711 13.6607 27.45 14.4393 27.45 15.25C27.45 16.0606 27.7711 16.8392 28.3409 17.409C28.9108 17.9789 29.6894 18.3 30.5 18.3C31.3107 18.3 32.0812 17.9789 32.6591 17.409C33.229 16.8392 33.55 16.0606 33.55 15.25C33.55 14.4393 33.229 13.6688 32.6591 13.0909ZM31.2224 15.9643C31.0297 16.1569 30.7729 16.2613 30.5 16.2613C30.0907 16.2613 29.7215 16.0125 29.5609 15.6352C29.4004 15.258 29.4887 14.8165 29.7776 14.5276C30.0666 14.2386 30.508 14.1503 30.8853 14.3109C31.2625 14.4714 31.5113 14.8406 31.5113 15.25C31.5113 15.5228 31.407 15.7797 31.2144 15.9723L31.2224 15.9643Z" fill="#2E539A"/>
<path d="M60.703 28.7663C60.5104 28.5737 60.2536 28.4693 59.9807 28.4693H58.5761L52.4761 16.2693C53.367 15.5068 53.8807 14.3912 53.8807 13.2193C53.8807 13.107 53.8566 13.0107 53.8486 12.8983L58.1186 12.1839L57.7814 10.1774L53.1904 10.9399C52.6125 10.073 51.7136 9.46303 50.6942 9.23829C49.6749 9.01355 48.6074 9.19013 47.7164 9.73592C46.8255 10.2817 46.1754 11.1486 45.9105 12.1518L37.4107 13.5725C36.897 11.4937 35.4843 9.74395 33.55 8.82895V5.91539C34.465 5.59434 35.1633 4.85592 35.4522 3.94092C35.7332 3.01789 35.5646 2.01461 34.9867 1.23605C34.4088 0.4575 33.5018 0 32.5307 0H28.4613C27.4982 0 26.5832 0.4575 26.0133 1.22803C25.4354 2.00658 25.2668 3.00987 25.5478 3.93289C25.8287 4.85592 26.535 5.58632 27.442 5.90737V8.82092C26.23 9.39882 25.2026 10.3058 24.4803 11.4455C23.7579 12.5853 23.3807 13.9016 23.3726 15.242C23.3726 15.4667 23.3887 15.6834 23.4047 15.9001L14.7122 17.3449C14.1745 16.3576 13.2434 15.6353 12.1518 15.3624C11.0603 15.0895 9.90447 15.2821 8.95737 15.8921C8.01026 16.5101 7.36816 17.4893 7.17553 18.597L2.87342 19.3113L3.21053 21.3179L7.35211 20.6276C7.58487 21.2938 7.98618 21.8878 8.51592 22.3453L2.41592 34.5453H1.01934C0.4575 34.5453 0 35.0028 0 35.5646V36.5037C0 37.6033 0.441447 38.6547 1.21197 39.4333C1.99053 40.2118 3.04197 40.6453 4.14158 40.6453H18.2197C19.3193 40.6453 20.3708 40.2038 21.1493 39.4333C21.9279 38.6547 22.3613 37.6033 22.3613 36.5037V35.5646C22.3613 35.2917 22.257 35.0349 22.0643 34.8422C21.8717 34.6496 21.6149 34.5453 21.342 34.5453H19.9374L13.8374 22.3453C14.7203 21.5828 15.2339 20.4751 15.242 19.3113L23.8863 17.8746C24.5525 19.5361 25.8207 20.8845 27.442 21.655V46.7533C25.1946 46.7533 23.0195 47.588 21.35 49.0889C19.6725 50.5899 18.605 52.6526 18.3562 54.892H15.242C14.6801 54.892 14.2226 55.3495 14.2226 55.9113V59.9807C14.2226 60.2536 14.327 60.5104 14.5196 60.703C14.7122 60.8957 14.9691 61 15.242 61H45.75C46.0229 61 46.2797 60.8957 46.4724 60.703C46.665 60.5104 46.7693 60.2536 46.7693 59.9807V55.9113C46.7693 55.6384 46.665 55.3816 46.4724 55.1889C46.2797 54.9963 46.0229 54.892 45.75 54.892H42.6438C42.395 52.6526 41.3275 50.5899 39.65 49.0889C37.9725 47.588 35.8054 46.7613 33.558 46.7533V21.6711C34.7138 21.1172 35.7091 20.2664 36.4154 19.1989C37.1217 18.1314 37.5391 16.8874 37.6033 15.6112L45.8945 14.2307C46.1032 15.0253 46.5366 15.7396 47.1546 16.2774L41.0546 28.4774H39.65C39.0882 28.4774 38.6307 28.9349 38.6307 29.4967V30.4278C38.6307 31.5274 39.0721 32.5788 39.8426 33.3574C40.6212 34.1359 41.6726 34.5693 42.7722 34.5774H56.8424C57.942 34.5774 58.9934 34.1359 59.772 33.3574C60.5505 32.5788 60.984 31.5274 60.984 30.4278V29.4967C60.984 29.2238 60.8796 28.967 60.687 28.7743L60.703 28.7663ZM9.74395 17.8826C10.1212 17.5054 10.6429 17.2887 11.1807 17.2887C11.7184 17.2887 12.2401 17.5054 12.6174 17.8826C12.9946 18.2679 13.2113 18.7816 13.2113 19.3193C13.2113 19.8571 12.9946 20.3788 12.6174 20.7561C12.2321 21.1333 11.7184 21.35 11.1807 21.35C10.6429 21.35 10.1212 21.1333 9.74395 20.7561C9.35868 20.3708 9.15 19.8571 9.15 19.3193C9.15 18.7816 9.36671 18.2599 9.74395 17.8826ZM20.3307 36.6C20.3066 37.1458 20.0738 37.6595 19.6805 38.0447C19.2872 38.422 18.7575 38.6387 18.2117 38.6387H4.14961C3.60382 38.6387 3.07408 38.43 2.68079 38.0447C2.2875 37.6675 2.05474 37.1458 2.03066 36.6H20.3307ZM17.6659 34.5693H4.69539L10.3299 23.2924C10.8917 23.4128 11.4696 23.4128 12.0314 23.2924L17.6659 34.5693ZM28.4693 2.03066H32.5387C33.1005 2.03066 33.558 2.48816 33.558 3.05C33.558 3.61184 33.1005 4.06934 32.5387 4.06934H28.4693C27.9075 4.06934 27.45 3.61184 27.45 3.05C27.45 2.48816 27.9075 2.03066 28.4693 2.03066ZM31.5193 6.1V8.21092C30.8451 8.10658 30.1629 8.10658 29.4887 8.21092V6.1H31.5193ZM44.7387 56.9307V58.9613H16.2693V56.9307H44.7307H44.7387ZM33.558 48.8C35.2676 48.8 36.9211 49.4261 38.2133 50.5417C39.5055 51.6574 40.3483 53.2064 40.5971 54.9H20.4189C20.6678 53.2064 21.5105 51.6574 22.8028 50.5417C24.095 49.418 25.7484 48.8 27.458 48.8H33.558ZM29.4887 46.7693V22.2891C30.1629 22.4014 30.8451 22.4014 31.5193 22.2891V46.7693H29.4887ZM34.0958 18.8458C33.1407 19.8009 31.8484 20.3307 30.5 20.3387C29.1516 20.3387 27.8593 19.8009 26.9042 18.8538C25.9491 17.8987 25.4193 16.6064 25.4193 15.258C25.4193 13.9096 25.9571 12.6174 26.9042 11.6622C27.8593 10.7071 29.1516 10.1693 30.5 10.1693C31.8484 10.1693 33.1407 10.7071 34.0958 11.6622C35.0509 12.6174 35.5807 13.9096 35.5807 15.258C35.5807 16.6064 35.0429 17.8987 34.0878 18.8538L34.0958 18.8458ZM48.3826 11.7826C48.7599 11.4054 49.2816 11.1887 49.8193 11.1887C50.3571 11.1887 50.8788 11.4054 51.2561 11.7826C51.6333 12.1679 51.85 12.6816 51.85 13.2193C51.85 13.7571 51.6333 14.2788 51.2561 14.6561C50.8708 15.0413 50.3571 15.25 49.8193 15.25C49.2816 15.25 48.7599 15.0333 48.3826 14.6561C47.9974 14.2788 47.7887 13.7571 47.7887 13.2193C47.7887 12.6816 48.0054 12.1599 48.3826 11.7826ZM48.9686 17.1924C49.5304 17.3128 50.1083 17.3128 50.6701 17.1924L56.3126 28.4693H43.3341L48.9686 17.1924ZM58.3192 31.9447C57.9259 32.322 57.3962 32.5387 56.8504 32.5387H42.7803C42.2345 32.5387 41.7047 32.33 41.3115 31.9447C40.9182 31.5675 40.6854 31.0458 40.6613 30.5H58.9613C58.9372 31.0458 58.7045 31.5595 58.3112 31.9447H58.3192Z" fill="#2E539A"/>
</g>
<defs>
<clipPath id="clip0_9_112">
<rect width="61" height="61" fill="white"/>
</clipPath>
</defs>
</svg>
