<svg width="40" height="61" viewBox="0 0 40 61" fill="none" xmlns="http://www.w3.org/2000/svg">
<g clip-path="url(#clip0_9_90)">
<path d="M27.4956 33.0444C25.372 33.0444 23.7458 34.6979 23.7458 36.8569C23.7458 39.016 25.372 40.6694 27.4956 40.6694C29.6191 40.6694 31.2453 39.016 31.2453 36.8569C31.2453 34.6979 29.6191 33.0444 27.4956 33.0444ZM27.4956 38.1251C26.7456 38.1251 26.2483 37.6194 26.2483 36.8569C26.2483 36.0944 26.7456 35.5888 27.4956 35.5888C28.2455 35.5888 28.7428 36.0944 28.7428 36.8569C28.7428 37.6194 28.2455 38.1251 27.4956 38.1251Z" fill="#2E539A"/>
<path d="M33.7478 39.3932C32.9978 39.3932 32.5005 39.8988 32.5005 40.6613C32.5005 42.4432 30.6217 44.4738 27.5035 44.4738C24.7563 44.4738 22.1275 42.1863 21.1328 40.1557C19.7592 37.2341 16.2621 34.3125 12.5123 34.3125C7.76002 34.3125 5.01283 37.4909 5.01283 40.6693C5.01283 49.0568 11.7624 55.9193 20.0118 55.9193C28.2613 55.9193 35.0109 49.0568 35.0109 40.6693C35.0109 39.9068 34.5135 39.4012 33.7636 39.4012L33.7478 39.3932ZM19.9961 53.367C13.1202 53.367 7.49951 47.6522 7.49951 40.6613C7.49951 38.8795 9.37833 36.8488 12.4966 36.8488C15.2437 36.8488 17.8725 39.1363 18.8672 41.167C20.2408 44.0886 23.7458 47.0101 27.4956 47.0101C28.8692 47.0101 30.2428 46.7533 31.2453 46.2476C29.2481 50.4454 24.9931 53.367 19.9961 53.367Z" fill="#2E539A"/>
<path d="M33.3768 25.7965C29.3744 21.7271 27.5035 18.2999 27.5035 15.2499V13.9818H30.0059V11.4374H27.5035V8.89307C27.5035 7.87372 27.1245 6.86241 26.3746 6.2203C25.6246 5.58622 24.7484 5.08057 23.7537 5.08057H16.2542C15.2516 5.08057 14.257 5.46583 13.6333 6.2203C12.8834 6.85438 12.5044 7.87372 12.5044 8.89307V11.4374H10.002V13.9818H12.5044V15.2499C12.5044 18.2999 10.6256 21.7352 6.63114 25.7965C4.62601 27.8352 0 33.2931 0 40.6693C0 51.8499 8.99941 60.9999 19.9961 60.9999C30.9927 60.9999 39.9921 51.8499 39.9921 40.6693C39.9921 33.3011 35.3661 27.8352 33.3689 25.7965H33.3768ZM15.3779 8.01017C15.6306 7.75333 15.8753 7.62491 16.2542 7.62491H23.7537C24.1326 7.62491 24.3773 7.75333 24.63 8.01017C24.8826 8.26701 25.0089 8.51583 25.0089 8.90109V11.4454H15.0069V8.90109C15.0069 8.51583 15.1332 8.26701 15.3779 8.01017ZM20.0039 58.4636C10.3809 58.4636 2.50247 50.4533 2.50247 40.6693C2.50247 34.3124 6.63114 29.3602 8.37576 27.5783C12.8755 23.0033 14.999 19.0624 14.999 15.2499V13.9818H18.7488V20.3386H21.2512V13.9818H25.001V15.2499C25.001 19.0624 27.1245 23.0033 31.6242 27.5783C33.3768 29.3602 37.4975 34.3124 37.4975 40.6693C37.4975 50.4533 29.6191 58.4636 19.9961 58.4636H20.0039Z" fill="#2E539A"/>
<path d="M13.7517 43.2058C14.4406 43.2058 14.999 42.638 14.999 41.9376C14.999 41.2372 14.4406 40.6694 13.7517 40.6694C13.0629 40.6694 12.5044 41.2372 12.5044 41.9376C12.5044 42.638 13.0629 43.2058 13.7517 43.2058Z" fill="#2E539A"/>
<path d="M22.4985 29.2238C23.1874 29.2238 23.7458 28.656 23.7458 27.9557C23.7458 27.2553 23.1874 26.6875 22.4985 26.6875C21.8097 26.6875 21.2512 27.2553 21.2512 27.9557C21.2512 28.656 21.8097 29.2238 22.4985 29.2238Z" fill="#2E539A"/>
<path d="M23.7537 0H16.2463C15.5574 0 14.999 0.567774 14.999 1.26816V1.27618C14.999 1.97657 15.5574 2.54434 16.2463 2.54434H23.7537C24.4426 2.54434 25.001 1.97657 25.001 1.27618V1.26816C25.001 0.567774 24.4426 0 23.7537 0Z" fill="#2E539A"/>
</g>
<defs>
<clipPath id="clip0_9_90">
<rect width="40" height="61" fill="white"/>
</clipPath>
</defs>
</svg>
