<svg width="59" height="55" viewBox="0 0 59 55" fill="none" xmlns="http://www.w3.org/2000/svg">
<path d="M22.2324 13.5991C22.2324 10.8478 26.3116 5.54815 28.9149 2.5378V15.0273L26.4822 12.724C26.2004 12.458 25.7405 12.458 25.4587 12.724C25.1769 12.99 25.1769 13.4241 25.4587 13.6901L28.9149 16.9525V20.5579C25.1695 20.2149 22.2324 17.2255 22.2324 13.5991ZM30.3612 20.5579V16.9525L33.8174 13.6901C34.0992 13.4241 34.0992 12.99 33.8174 12.724C33.5355 12.458 33.0757 12.458 32.7939 12.724L30.3612 15.0273V2.5378C32.9644 5.54815 37.0436 10.8478 37.0436 13.5991C37.0436 17.2255 34.1066 20.2149 30.3612 20.5579ZM38.4899 13.5991C38.4899 9.15357 30.5169 0.584568 30.1758 0.220526C29.9013 -0.0735086 29.3673 -0.0735086 29.0929 0.220526C28.7517 0.584568 20.7862 9.15357 20.7862 13.5991C20.7862 18.0446 24.3684 21.573 28.9149 21.9161V24.0093C28.9149 24.3873 29.2412 24.6884 29.6343 24.6884C30.0274 24.6884 30.3538 24.3803 30.3538 24.0093V21.9161C34.8928 21.566 38.4825 17.9746 38.4825 13.5991" fill="#2E539A"/>
<path d="M22.5439 26.5718H18.7243L15.2681 23.3094C14.9863 23.0434 14.5264 23.0434 14.2446 23.3094C13.9628 23.5755 13.9628 24.0095 14.2446 24.2756L16.6847 26.5788H3.45326C6.64246 24.1215 12.2569 20.2711 15.1717 20.2711C19.0136 20.2711 22.1805 23.0434 22.5439 26.5788M15.1717 34.2517C12.2569 34.2517 6.64246 30.4013 3.45326 27.944H16.6847L14.2446 30.2402C13.9628 30.5063 13.9628 30.9403 14.2446 31.2064C14.3855 31.3394 14.571 31.4094 14.7564 31.4094C14.9418 31.4094 15.1272 31.3394 15.2681 31.2064L18.7243 27.944H22.5439C22.1805 31.4794 19.0136 34.2517 15.1717 34.2517ZM0.760986 27.2509C0.760986 27.4469 0.849987 27.6359 1.00574 27.762C1.39141 28.084 10.4695 35.6029 15.1791 35.6029C19.8888 35.6029 23.6268 32.2215 23.9902 27.93H26.2078C26.6083 27.93 26.9272 27.6219 26.9272 27.2509C26.9272 26.8799 26.6009 26.5718 26.2078 26.5718H23.9902C23.6194 22.2803 19.8146 18.8989 15.1791 18.8989C10.5437 18.8989 1.39141 26.4178 1.00574 26.7398C0.849987 26.8659 0.760986 27.0549 0.760986 27.2509Z" fill="#2E539A"/>
<path d="M30.3612 51.9637V39.4743L32.7939 41.7705C32.9348 41.9036 33.1202 41.9736 33.3056 41.9736C33.4911 41.9736 33.6765 41.9036 33.8174 41.7705C34.0992 41.5045 34.0992 41.0705 33.8174 40.8044L30.3612 37.5421V33.9366C34.1067 34.2797 37.0437 37.269 37.0437 40.8954C37.0437 43.6468 32.9645 48.9464 30.3612 51.9567M28.9149 33.9366V37.5421L25.4587 40.8044C25.1769 41.0705 25.1769 41.5045 25.4587 41.7705C25.7406 42.0366 26.2004 42.0366 26.4822 41.7705L28.9149 39.4743V51.9637C26.3117 48.9534 22.2325 43.6538 22.2325 40.9024C22.2325 37.276 25.1695 34.2867 28.9149 33.9436M30.3612 32.5785V30.4852C30.3612 30.1072 30.0349 29.8062 29.6418 29.8062C29.2487 29.8062 28.9224 30.1142 28.9224 30.4852V32.5785C24.3833 32.9285 20.7936 36.5199 20.7936 40.8954C20.7936 45.271 28.7592 53.91 29.1004 54.274C29.2413 54.421 29.4341 54.505 29.6418 54.505C29.8494 54.505 30.0423 54.421 30.1832 54.274C30.5244 53.91 38.4899 45.341 38.4899 40.8954C38.4899 36.4499 34.9077 32.9215 30.3612 32.5785Z" fill="#2E539A"/>
<path d="M36.7322 27.9298H40.5518L44.008 31.1922C44.1489 31.3252 44.3343 31.3952 44.5197 31.3952C44.7052 31.3952 44.8906 31.3252 45.0315 31.1922C45.3133 30.9262 45.3133 30.4921 45.0315 30.2261L42.5988 27.9298H55.8303C52.6411 30.3871 47.0266 34.2376 44.1118 34.2376C40.27 34.2376 37.103 31.4652 36.7396 27.9298M44.1118 20.2569C47.0266 20.2569 52.6411 24.1074 55.8303 26.5647H42.5988L45.0315 24.2614C45.3133 23.9954 45.3133 23.5613 45.0315 23.2953C44.7497 23.0292 44.2898 23.0292 44.008 23.2953L40.5518 26.5577H36.7322C37.0956 23.0222 40.2625 20.2499 44.1044 20.2499M44.1044 18.8848C39.4689 18.8848 35.6567 22.2732 35.2933 26.5577H33.0757C32.6752 26.5577 32.3563 26.8657 32.3563 27.2367C32.3563 27.6078 32.6826 27.9158 33.0757 27.9158H35.2933C35.6642 32.2003 39.4689 35.5887 44.1044 35.5887C48.7399 35.5887 57.8921 28.0628 58.2778 27.7478C58.4335 27.6218 58.5225 27.4328 58.5225 27.2367C58.5225 27.0407 58.4335 26.8517 58.2778 26.7257C57.8921 26.4036 48.814 18.8848 44.1044 18.8848Z" fill="#2E539A"/>
<path d="M8.39281 7.20048C9.57949 7.12347 11.6858 7.22848 12.8503 8.31361C14.0963 9.46874 14.1408 11.541 14.0814 12.5071C13.0579 12.5701 10.87 12.5561 9.62399 11.401C8.37798 10.2388 8.33348 8.16659 8.39281 7.20048ZM14.8676 13.7952C15.1791 13.7462 15.4165 13.5152 15.4684 13.2212C15.4906 13.0672 16.0469 9.36373 13.8664 7.34049C11.6933 5.31726 7.77722 5.88432 7.61406 5.91233C7.30255 5.96133 7.0578 6.19236 7.0133 6.48639C6.99105 6.64041 6.43479 10.3438 8.61532 12.3671C9.98741 13.6482 12.0493 13.8863 13.4288 13.8863C14.2372 13.8863 14.8083 13.8022 14.8676 13.7952Z" fill="#2E539A"/>
<path d="M12.8429 46.1393C11.6117 47.3154 9.41633 47.3574 8.39282 47.3014C8.31123 46.1813 8.42248 44.1931 9.57208 43.0939C10.7958 41.9248 12.9912 41.8758 14.0147 41.9318C14.0815 42.8979 14.0666 44.9631 12.8429 46.1393ZM14.7786 40.6296C14.6155 40.6086 10.692 40.0836 8.54857 42.1418C6.40513 44.1931 7.00589 47.8895 7.03556 48.0435C7.08747 48.3375 7.33222 48.5616 7.64373 48.6106C7.70306 48.6176 8.2074 48.6876 8.93424 48.6876C10.3063 48.6876 12.472 48.4425 13.8738 47.1054C16.0172 45.0542 15.4165 41.3577 15.3868 41.2037C15.3349 40.9097 15.0901 40.6856 14.7786 40.6366" fill="#2E539A"/>
<path d="M45.1872 42.0013C46.2107 41.9383 48.3987 41.9523 49.6447 43.1074C50.8907 44.2695 50.9352 46.3418 50.8759 47.3079C49.6892 47.3919 47.5828 47.2799 46.4184 46.1947C45.1724 45.0396 45.1279 42.9674 45.1872 42.0013ZM51.662 48.596C51.9735 48.547 52.2109 48.316 52.2628 48.022C52.285 47.8679 52.8413 44.1645 50.6608 42.1413C48.4877 40.118 44.5716 40.6851 44.4085 40.7131C44.097 40.7621 43.8596 40.9931 43.8077 41.2872C43.7855 41.4412 43.2292 45.1446 45.4097 47.1679C46.7818 48.449 48.8437 48.687 50.2232 48.687C51.0316 48.687 51.6027 48.603 51.662 48.596Z" fill="#2E539A"/>
<path d="M49.7041 11.4081C48.4803 12.5842 46.285 12.6262 45.2614 12.5702C45.1947 11.6041 45.2095 9.53886 46.4333 8.36272C47.6645 7.18658 49.8598 7.14458 50.8833 7.20059C50.9649 8.32072 50.8537 10.3089 49.7041 11.4081ZM51.6398 5.89843C51.4767 5.87743 47.5532 5.35237 45.4098 7.41061C43.2663 9.46185 43.8671 13.1583 43.8968 13.3123C43.9487 13.6063 44.1934 13.8304 44.5049 13.8794C44.5643 13.8864 45.0686 13.9564 45.7954 13.9564C47.1675 13.9564 49.3332 13.7113 50.735 12.3742C52.8784 10.323 52.2777 6.62652 52.248 6.4725C52.1961 6.17847 51.9513 5.95444 51.6398 5.90544" fill="#2E539A"/>
</svg>
