<svg width="55" height="54" viewBox="0 0 55 54" fill="none" xmlns="http://www.w3.org/2000/svg">
<path d="M54.705 13.0739C53.935 11.8238 52.2769 11.766 50.6212 11.7105C49.7332 11.6528 48.8452 11.6528 48.1353 11.4841C45.5315 10.8024 38.603 6.42599 36.7696 4.20765C36.5916 3.98117 36.4135 3.8102 36.2378 3.526C35.4654 2.61561 34.5774 1.42106 33.0974 0.852638C31.4394 0.170982 29.5455 0.057752 28.2435 0C27.1197 0 26.2317 0.794886 26.1114 1.87626C25.9334 3.75251 25.2836 5.91298 23.9215 6.42366C22.3814 6.99208 21.3755 7.84472 20.7257 8.41314C19.8979 9.0948 19.6596 9.26578 19.0676 9.20803C18.8896 9.1503 18.4155 8.69733 18.1195 8.41314C17.7056 8.01569 17.2917 7.61826 16.7574 7.33405C15.8695 6.87886 14.7456 6.87886 13.3836 7.39178C12.4354 7.73372 11.8434 8.69961 12.0215 9.66548C12.1394 10.4049 12.3776 11.655 12.7314 12.905C11.6076 12.8473 10.4236 12.6208 9.7113 11.8814C8.40939 10.5181 5.74541 10.5736 1.71938 12.0524C0.653321 12.4498 -0.0565982 13.4735 0.0035484 14.6103C0.181608 16.9972 1.12739 18.5893 2.78545 19.1577C8.82556 21.2582 12.1419 29.3314 12.1419 29.3314C13.0299 32.5155 12.2598 37.9157 9.77393 45.3604C9.36 46.4972 9.83405 47.7473 10.8978 48.4867C14.2139 50.7604 18.1799 51.3289 20.9013 51.3866C21.6112 51.3866 22.3211 51.6708 22.7952 52.0683C24.6891 53.6603 26.7611 54 28.9507 54C29.4826 54 30.0168 54 30.6088 53.9423C31.2609 53.8845 31.9107 53.6003 32.3246 53.1474C32.7386 52.6922 32.9166 52.0105 32.8565 51.4421C32.6206 49.3394 33.5086 48.771 33.8046 48.6C35.5205 47.5209 39.3684 48.1448 41.7966 49.3949C45.4664 51.3266 47.0066 50.3607 48.9005 48.7132C49.3745 48.3158 49.7885 47.9183 50.3805 47.5186C52.8086 45.8711 52.9843 44.3923 52.7484 43.4819C52.4524 42.4028 51.4465 41.6634 49.9665 41.4346C49.4925 40.8662 49.6104 38.3661 50.0267 37.6821C51.1505 36.2611 50.7967 34.3293 50.0868 31.3163C49.4948 28.8717 48.3709 28.1323 47.187 28.019C48.075 26.8244 49.6151 25.4034 50.917 24.7795C52.6328 23.9846 52.9288 22.1638 53.2248 20.4585C53.4607 19.2084 53.6989 17.7296 54.4088 16.3086C54.647 15.8023 55.417 14.3235 54.7048 13.0734L54.705 13.0739ZM51.9231 15.0633C50.975 16.8818 50.679 18.5871 50.4432 20.0082C50.2651 21.145 50.087 22.1687 49.6731 22.3396C47.7792 23.25 43.4572 26.8293 43.6928 29.6712C43.6928 30.0686 43.9286 30.4106 44.2246 30.6371C44.5206 30.8635 44.9346 30.979 45.2907 30.9213C45.5867 30.8635 45.8226 30.808 46.0608 30.7503C46.3568 30.6926 46.7707 30.5793 46.8886 30.5793C46.8886 30.5793 47.1245 30.8058 47.4205 31.8294C47.9524 33.9899 48.1905 35.5242 47.8344 35.9216C46.9464 37.0007 46.5325 40.298 47.3604 42.1743C47.9524 43.5376 48.9583 43.8796 49.5503 43.9373C49.7861 43.995 49.9064 43.995 50.0243 44.0505C49.9064 44.2215 49.6104 44.619 48.7802 45.1874C48.0703 45.6426 47.5361 46.1533 47.0644 46.5507C45.6445 47.8008 45.3485 48.0295 43.1562 46.8927C40.6102 45.5293 35.3999 44.1638 32.2647 46.211C31.1409 46.9504 29.8968 48.3715 30.0748 51.1558C27.5288 51.2691 26.0488 51.0426 24.6868 49.9058C23.6808 49.0531 22.3789 48.5979 21.0169 48.5424C18.709 48.4847 15.3328 48.0317 12.4933 46.0423C15.2175 37.9712 15.9852 32.229 14.8613 28.3631C14.6278 28.1367 11.018 19.1552 3.73597 16.6547C3.26192 16.4837 2.90813 15.6888 2.84798 14.552C5.8681 13.4729 7.40586 13.5284 7.64408 13.6994C9.53799 15.7466 12.7362 15.6311 14.6876 15.5756C15.1617 15.5756 15.5756 15.3491 15.8115 14.9494C16.0473 14.552 16.1075 14.1546 15.9294 13.6994C15.3975 12.3361 15.0414 10.6863 14.8633 9.72039C15.2195 9.66266 15.3952 9.60714 15.3952 9.66266C15.5733 9.7759 15.8693 10.0601 16.1051 10.2888C16.7573 10.915 17.5851 11.7099 18.709 11.8231C20.5451 11.9941 21.6088 11.1415 22.4968 10.4021C23.1489 9.89137 23.7987 9.32297 24.9249 8.86777C27.649 7.84415 28.4769 4.71781 28.7728 2.6151C29.6608 2.67283 30.905 2.78607 31.9687 3.24127C32.7387 3.58321 33.3885 4.37812 33.9805 5.11753C34.2164 5.40174 34.3944 5.62823 34.5725 5.85694C36.8225 8.4726 44.2226 13.1885 47.3607 13.986C48.4268 14.2702 49.4929 14.2702 50.4988 14.3279C51.0307 14.3279 51.7429 14.3857 52.1568 14.4412C52.1013 14.6654 52.0412 14.8364 51.9233 15.0629L51.9231 15.0633Z" fill="#2E539A"/>
</svg>
