<svg width="57" height="50" viewBox="0 0 57 50" fill="none" xmlns="http://www.w3.org/2000/svg">
<path d="M15.8797 3.15588C11.6809 3.15588 7.74712 5.20402 5.37078 8.63883C2.96233 12.1135 2.52078 16.5126 4.1505 20.7204C5.57951 24.4103 8.99148 27.7973 12.6604 31.2241C13.712 32.2043 14.7718 33.1846 15.8716 34.1967C19.388 37.4402 23.3458 41.0982 28.4999 46.1827C33.6701 41.0822 37.628 37.4323 41.1363 34.1887C42.2361 33.1766 43.2878 32.1964 44.3395 31.2241C48.0084 27.7893 51.4204 24.4023 52.8494 20.7204C54.4791 16.5206 54.0295 12.1135 51.6211 8.63883C49.2447 5.20402 45.3189 3.15588 41.1122 3.15588C37.5718 3.15588 34.0233 4.59834 30.8602 7.33185L29.6158 8.55913C28.9977 9.16481 28.0022 9.16481 27.384 8.55913L26.0513 7.26809C22.9605 4.59834 19.412 3.15588 15.8716 3.15588M28.4919 50C28.0744 50 27.673 49.8326 27.368 49.5378L26.9987 49.1712C21.5074 43.7281 17.3488 39.8868 13.688 36.5078C12.5881 35.4877 11.5204 34.5075 10.4687 33.5193C6.51881 29.8295 2.83388 26.1556 1.16402 21.8441C-0.82697 16.664 -0.256969 11.197 2.75359 6.85368C5.72402 2.55818 10.6292 0 15.8797 0C20.1988 0 24.4698 1.71342 28.2189 4.949L28.4999 5.21996L28.7087 5.01275C32.5301 1.71342 36.793 0 41.1122 0C46.3626 0 51.2678 2.55818 54.2382 6.85368C57.2408 11.197 57.8188 16.664 55.8118 21.8521C54.1419 26.1556 50.457 29.8295 46.5071 33.5273C45.4554 34.5075 44.3957 35.4877 43.2958 36.5078C39.627 39.8948 35.4684 43.7361 29.9771 49.1791C29.8647 49.2907 29.7764 49.3784 29.672 49.49C29.383 49.8087 28.9656 49.992 28.5401 50H28.4999H28.4919Z" fill="#2E539A"/>
</svg>
